<svg width="160" height="160" viewBox="0 0 160 160" fill="none" xmlns="http://www.w3.org/2000/svg">
<circle cx="80" cy="80" r="80" fill="#6817C5"/>
<path d="M58.0972 88.8862C57.9335 88.5512 58.3979 88.9299 58.7329 88.7663L82.1723 77.3133C84.4052 76.2222 87.0999 77.1479 88.191 79.3809L89.6405 82.2396L65.4842 93.8707C63.2513 94.9618 60.5566 94.0361 59.4655 91.8032L58.0972 88.8862Z" fill="#D9D9D9"/>
<path d="M57.88 97.0953L88.9746 81.9018C89.1979 81.7927 89.4674 81.8853 89.5765 82.1086L90.9006 84.8185C94.5284 92.2431 91.4505 101.203 84.0259 104.831L52.9313 120.024C52.708 120.133 52.4385 120.041 52.3294 119.817L51.0053 117.108C47.3775 109.683 50.4554 100.723 57.88 97.0953Z" fill="white"/>
<path d="M97.9763 88.215L119.881 49.9546L76.4142 42.5859L83.1769 56.8971L63.7564 66.3864C56.3318 70.0142 53.2539 78.974 56.8817 86.3986L58.2059 89.1086C58.315 89.3319 58.5844 89.4244 58.8077 89.3153L89.9023 74.1219C90.2895 73.9326 90.6649 73.7289 91.0282 73.5117L97.9763 88.215Z" fill="white"/>
</svg>
