<?xml version="1.0" encoding="UTF-8" standalone="no"?>
<!DOCTYPE svg PUBLIC "-//W3C//DTD SVG 1.1//EN" "http://www.w3.org/Graphics/SVG/1.1/DTD/svg11.dtd">
<svg width="100%" height="100%" viewBox="0 0 1332 160" version="1.1" xmlns="http://www.w3.org/2000/svg" xmlns:xlink="http://www.w3.org/1999/xlink" xml:space="preserve" xmlns:serif="http://www.serif.com/" style="fill-rule:evenodd;clip-rule:evenodd;stroke-linejoin:round;stroke-miterlimit:2;">
    <g id="Artboard1" transform="matrix(1.83362,0,0,1,0,0)">
        <rect x="0" y="0" width="726" height="160" style="fill:none;"/>
        <g transform="matrix(0.545369,0,0,1,0,0)">
            <path d="M214.619,117.741L214.607,117.733C206.725,112.363 202.742,104.361 202.573,94.033L202.54,92L223.877,92L223.97,93.902C224.18,98.155 225.97,101.222 229.387,103.34C232.962,105.557 237.914,106.76 244.413,106.76L246.333,106.76C253.055,106.76 257.455,105.832 259.917,104.301C262.478,102.709 263.413,100.993 263.413,99.16C263.413,97.15 262.58,95.538 260.666,94.199L260.653,94.189L260.64,94.18C258.717,92.787 255.189,91.564 249.738,90.695L249.727,90.693L236.644,88.533C226.9,86.909 219.447,84.147 214.567,80.052L214.553,80.041C209.593,75.802 207.253,69.614 207.253,61.84C207.253,57.111 208.617,52.691 211.303,48.619C214.045,44.461 218.268,41.205 223.797,38.774C229.42,36.221 236.485,35 244.893,35C256.831,35 266.498,37.532 273.675,42.827C280.874,48.057 284.913,55.307 285.764,64.414L285.968,66.6L264.624,66.6L264.391,64.867C263.911,61.305 262.176,58.627 259.076,56.698C255.895,54.719 251.541,53.64 245.853,53.64L243.933,53.64C238.25,53.64 234.173,54.504 231.485,56.017C228.812,57.567 227.933,59.171 227.933,60.76C227.933,63.161 228.764,64.684 230.282,65.696C232.095,66.904 235.124,67.964 239.584,68.748L253.014,70.906C263.044,72.537 270.823,75.592 276.098,80.263C281.434,84.985 284.093,91.143 284.093,98.56C284.093,107.185 280.635,113.979 273.741,118.691L273.737,118.694C267.026,123.254 257.523,125.4 245.493,125.4C232.7,125.4 222.343,122.918 214.619,117.741Z"/>
        </g>
        <g transform="matrix(0.545369,0,0,1,0,0)">
            <path d="M296.211,109.839L296.201,109.822C293.015,104.743 291.455,98.844 291.455,92.2C291.455,85.557 293.015,79.691 296.209,74.684L296.214,74.677C299.462,69.634 303.908,65.753 309.502,63.04C315.1,60.326 321.528,59 328.735,59C335.941,59 342.369,60.326 347.968,63.04C353.56,65.752 357.969,69.634 361.139,74.681C364.414,79.686 366.015,85.554 366.015,92.2C366.015,98.852 364.411,104.757 361.139,109.838C357.967,114.81 353.556,118.65 347.968,121.359C342.369,124.074 335.941,125.4 328.735,125.4C321.528,125.4 315.1,124.074 309.502,121.359C303.917,118.651 299.472,114.816 296.222,109.856L296.211,109.839ZM337.99,77.883L337.959,77.866C335.575,76.533 332.798,75.84 329.575,75.84L327.895,75.84C324.673,75.84 321.846,76.533 319.369,77.878L319.351,77.888C316.967,79.15 315.076,80.965 313.659,83.374C312.275,85.726 311.535,88.639 311.535,92.2C311.535,95.665 312.269,98.588 313.665,101.037C315.081,103.44 316.972,105.296 319.36,106.637C321.838,107.905 324.669,108.56 327.895,108.56L329.575,108.56C332.812,108.56 335.599,107.901 337.99,106.637C340.466,105.291 342.393,103.432 343.805,101.037C345.201,98.588 345.935,95.665 345.935,92.2C345.935,88.639 345.195,85.726 343.811,83.374C342.403,80.98 340.483,79.165 338.02,77.899L337.99,77.883Z"/>
        </g>
        <g transform="matrix(0.545369,0,0,1,0,0)">
            <rect x="375.131" y="36.2" width="19.96" height="88"/>
        </g>
        <g transform="matrix(0.545369,0,0,1,0,0)">
            <rect x="406.978" y="62.2" width="19.96" height="62"/>
        </g>
        <g transform="matrix(0.545369,0,0,1,0,0)">
            <path d="M451.787,121.457L451.775,121.45C446.726,118.798 442.698,114.98 439.713,110.033L439.709,110.027L439.705,110.02C436.691,104.94 435.225,98.974 435.225,92.2C435.225,85.058 436.678,78.953 439.716,74.001C442.706,69.048 446.747,65.301 451.817,62.808C456.909,60.263 462.456,59 468.425,59C474.29,59 479.288,59.905 483.32,61.832C485.458,62.833 487.353,63.975 488.985,65.267L488.985,36.2L508.945,36.2L508.945,124.2L488.985,124.2L488.985,119.443C487.192,120.835 485.103,122.007 482.741,122.971L482.724,122.978L482.708,122.985C478.52,124.608 473.829,125.4 468.665,125.4C462.532,125.4 456.893,124.095 451.787,121.457ZM486.746,101.258L486.75,101.251C488.209,98.819 488.985,95.831 488.985,92.2C488.985,88.479 488.205,85.505 486.763,83.171L486.752,83.153L486.741,83.134C485.338,80.749 483.431,78.984 480.991,77.799L480.96,77.784L480.929,77.768C478.537,76.501 475.746,75.84 472.505,75.84L470.825,75.84C466.16,75.84 462.483,77.28 459.622,80.072L459.613,80.08L459.603,80.089C456.832,82.725 455.305,86.651 455.305,92.2C455.305,97.74 456.828,101.718 459.612,104.439C462.47,107.153 466.15,108.56 470.825,108.56L472.505,108.56C475.759,108.56 478.561,107.934 480.96,106.736C483.418,105.47 485.335,103.657 486.741,101.266L486.746,101.258Z"/>
        </g>
        <g transform="matrix(0.545369,0,0,1,0,0)">
            <path d="M416.61,55.977C409.899,55.977 405.27,51.347 405.27,45.637C405.27,39.926 409.899,35.297 416.61,35.297L417.09,35.297C423.801,35.297 428.43,39.926 428.43,45.637C428.43,51.347 423.801,55.977 417.09,55.977L416.61,55.977Z"/>
        </g>
        <g transform="matrix(0.545369,0,0,1,0,0)">
            <circle cx="80.54" cy="80" r="80" style="fill:rgb(104,23,197);"/>
        </g>
        <g transform="matrix(1.40407,0,0,2.57452,19.7575,39.8424)">
            <path d="M22,2L12,12L6,12L0,20C0,20 6.357,18.23 10.065,19.06L0,32L13.184,21.745C15.023,25.953 12,32 12,32L20,26L20,20L30,10L32,0L22,2Z" style="fill:white;fill-rule:nonzero;"/>
        </g>
        <g transform="matrix(0.545369,0,0,1,0,0)">
            <path d="M118.604,39.886L36.593,121.758L36.228,122.227L70.17,95.825C74.905,106.659 67.122,122.227 67.122,122.227L87.718,106.78L87.718,91.333L113.464,65.588L118.604,39.886Z" style="fill:rgb(217,217,217);fill-rule:nonzero;"/>
        </g>
        <g transform="matrix(5.51506,0,0,10.1125,-2694.96,-763.275)">
            <path d="M544.096,79.354L540.952,79.354L540.952,87.754L541.84,87.754L541.84,85.102L544.096,85.102C546.232,85.102 547.528,84.022 547.528,82.234C547.528,80.434 546.232,79.354 544.096,79.354ZM544.072,84.322L541.84,84.322L541.84,80.122L544.072,80.122C545.752,80.122 546.64,80.89 546.64,82.234C546.64,83.554 545.752,84.322 544.072,84.322Z" style="fill-rule:nonzero;"/>
            <path d="M554.74,84.598C554.74,82.702 553.456,81.394 551.68,81.394C549.904,81.394 548.596,82.726 548.596,84.598C548.596,86.47 549.94,87.814 551.908,87.814C552.904,87.814 553.78,87.454 554.344,86.782L553.864,86.23C553.384,86.782 552.7,87.058 551.932,87.058C550.552,87.058 549.544,86.182 549.448,84.862L554.728,84.862C554.728,84.766 554.74,84.67 554.74,84.598ZM551.68,82.126C552.916,82.126 553.816,82.99 553.924,84.226L549.448,84.226C549.556,82.99 550.456,82.126 551.68,82.126Z" style="fill-rule:nonzero;"/>
            <path d="M557.296,82.678L557.296,81.442L556.48,81.442L556.48,87.754L557.332,87.754L557.332,84.538C557.332,83.05 558.136,82.21 559.456,82.21C559.516,82.21 559.588,82.222 559.66,82.222L559.66,81.394C558.496,81.394 557.692,81.838 557.296,82.678Z" style="fill-rule:nonzero;"/>
            <path d="M563.38,79.51C563.74,79.51 564.076,79.618 564.316,79.822L564.604,79.186C564.292,78.922 563.812,78.79 563.344,78.79C562.108,78.79 561.436,79.534 561.436,80.662L561.436,81.442L560.308,81.442L560.308,82.162L561.436,82.162L561.436,87.754L562.288,87.754L562.288,82.162L564.208,82.162L564.208,81.442L562.264,81.442L562.264,80.698C562.264,79.918 562.648,79.51 563.38,79.51Z" style="fill-rule:nonzero;"/>
            <path d="M567.832,87.814C569.68,87.814 571.036,86.47 571.036,84.598C571.036,82.726 569.68,81.394 567.832,81.394C565.984,81.394 564.616,82.726 564.616,84.598C564.616,86.47 565.984,87.814 567.832,87.814ZM567.832,87.058C566.488,87.058 565.48,86.074 565.48,84.598C565.48,83.122 566.488,82.138 567.832,82.138C569.176,82.138 570.172,83.122 570.172,84.598C570.172,86.074 569.176,87.058 567.832,87.058Z" style="fill-rule:nonzero;"/>
            <path d="M573.592,82.678L573.592,81.442L572.776,81.442L572.776,87.754L573.628,87.754L573.628,84.538C573.628,83.05 574.432,82.21 575.752,82.21C575.812,82.21 575.884,82.222 575.956,82.222L575.956,81.394C574.792,81.394 573.988,81.838 573.592,82.678Z" style="fill-rule:nonzero;"/>
            <path d="M585.364,81.394C584.224,81.394 583.324,81.91 582.868,82.726C582.484,81.838 581.668,81.394 580.624,81.394C579.568,81.394 578.752,81.838 578.308,82.594L578.308,81.442L577.492,81.442L577.492,87.754L578.344,87.754L578.344,84.442C578.344,83.002 579.172,82.162 580.456,82.162C581.608,82.162 582.28,82.846 582.28,84.178L582.28,87.754L583.132,87.754L583.132,84.442C583.132,83.002 583.948,82.162 585.244,82.162C586.384,82.162 587.056,82.846 587.056,84.178L587.056,87.754L587.908,87.754L587.908,84.094C587.908,82.282 586.9,81.394 585.364,81.394Z" style="fill-rule:nonzero;"/>
            <path d="M592.432,81.394C591.436,81.394 590.5,81.706 589.864,82.246L590.248,82.882C590.764,82.426 591.532,82.138 592.348,82.138C593.524,82.138 594.136,82.726 594.136,83.806L594.136,84.19L592.132,84.19C590.32,84.19 589.696,85.006 589.696,85.978C589.696,87.07 590.572,87.814 592,87.814C593.044,87.814 593.788,87.418 594.172,86.77L594.172,87.754L594.988,87.754L594.988,83.842C594.988,82.21 594.064,81.394 592.432,81.394ZM592.132,87.142C591.124,87.142 590.536,86.686 590.536,85.954C590.536,85.306 590.932,84.826 592.156,84.826L594.136,84.826L594.136,85.858C593.8,86.686 593.092,87.142 592.132,87.142Z" style="fill-rule:nonzero;"/>
            <path d="M600.52,81.394C599.428,81.394 598.576,81.838 598.12,82.606L598.12,81.442L597.304,81.442L597.304,87.754L598.156,87.754L598.156,84.442C598.156,83.002 599.008,82.162 600.364,82.162C601.564,82.162 602.26,82.846 602.26,84.178L602.26,87.754L603.112,87.754L603.112,84.094C603.112,82.282 602.056,81.394 600.52,81.394Z" style="fill-rule:nonzero;"/>
            <path d="M608.068,87.814C609.136,87.814 610.036,87.382 610.54,86.566L609.904,86.134C609.472,86.77 608.8,87.058 608.068,87.058C606.688,87.058 605.68,86.086 605.68,84.598C605.68,83.122 606.688,82.138 608.068,82.138C608.8,82.138 609.472,82.438 609.904,83.074L610.54,82.642C610.036,81.814 609.136,81.394 608.068,81.394C606.184,81.394 604.816,82.714 604.816,84.598C604.816,86.482 606.184,87.814 608.068,87.814Z" style="fill-rule:nonzero;"/>
            <path d="M617.608,84.598C617.608,82.702 616.324,81.394 614.548,81.394C612.772,81.394 611.464,82.726 611.464,84.598C611.464,86.47 612.808,87.814 614.776,87.814C615.772,87.814 616.648,87.454 617.212,86.782L616.732,86.23C616.252,86.782 615.568,87.058 614.8,87.058C613.42,87.058 612.412,86.182 612.316,84.862L617.596,84.862C617.596,84.766 617.608,84.67 617.608,84.598ZM614.548,82.126C615.784,82.126 616.684,82.99 616.792,84.226L612.316,84.226C612.424,82.99 613.324,82.126 614.548,82.126Z" style="fill-rule:nonzero;"/>
        </g>
    </g>
</svg>
